<?xml version="1.0" encoding="utf-8"?>
<!-- Generator: Adobe Illustrator 22.0.0, SVG Export Plug-In . SVG Version: 6.00 Build 0)  -->
<svg version="1.1" id="Layer_1" xmlns="http://www.w3.org/2000/svg" xmlns:xlink="http://www.w3.org/1999/xlink" x="0px" y="0px"
	 viewBox="0 0 258.7 68.7" style="enable-background:new 0 0 258.7 68.7;" xml:space="preserve" width="3.18in" height="0.954in" >
<style type="text/css">
	.st0{fill-rule:evenodd;clip-rule:evenodd;}
</style>
<g>
	<path d="M47.7,5.3v2.6v22.1v5.4v2.9v21.1l0,0l0,0c0.1-0.1,0.3-0.1,0.4-0.2c0.3-0.2,0.5-0.3,0.7-0.4c0.2-0.1,0.5-0.3,0.7-0.4v0
		l0.2-0.1l0.1-0.1c0.2-0.1,0.4-0.3,0.6-0.4l0,0c0.2-0.1,0.4-0.3,0.6-0.4c0.2-0.1,0.3-0.2,0.5-0.4c0.1-0.1,0.3-0.2,0.4-0.3l0,0
		l0.1-0.1l0.2-0.2c0.2-0.2,0.4-0.4,0.6-0.5c0.2-0.2,0.4-0.4,0.6-0.5c0.2-0.2,0.4-0.3,0.6-0.5c0.2-0.2,0.4-0.4,0.6-0.6
		c1.2-1.2,2.3-2.5,3.3-3.9c1-1.4,1.8-2.9,2.5-4.4c0.7-1.4,1.2-2.9,1.6-4.5c0.4-1.4,0.7-2.9,0.8-4.4h-9.1v-1.8v-4.1h9.1
		c-0.2-1.5-0.4-3-0.8-4.4c-0.4-1.6-1-3.1-1.6-4.5c-0.7-1.5-1.6-3-2.5-4.4c-1-1.4-2.1-2.7-3.3-3.9c-0.2-0.2-0.4-0.4-0.6-0.6
		c-0.1-0.1-0.2-0.2-0.3-0.3V5.9c0.3,0.2,0.6,0.4,0.9,0.6c0.5,0.4,1,0.7,1.4,1.1c0.5,0.4,0.9,0.8,1.4,1.2c0.5,0.4,0.9,0.8,1.3,1.2
		c1.6,1.6,3,3.3,4.3,5.2c1.2,1.9,2.3,3.8,3.2,5.9c0.9,2.1,1.5,4.2,1.9,6.4c0.4,2.2,0.7,4.4,0.7,6.7c0,2.3-0.2,4.5-0.7,6.7
		c-0.4,2.2-1.1,4.4-1.9,6.4c-0.9,2.1-1.9,4.1-3.2,5.9c-1.3,1.9-2.7,3.6-4.3,5.2c-0.4,0.4-0.9,0.8-1.3,1.2c-0.5,0.4-0.9,0.8-1.4,1.2
		c-0.4,0.4-0.9,0.7-1.3,1c-0.4,0.3-0.8,0.6-1.3,0.9l0,0L53.3,63L53,63.2c-0.5,0.3-0.9,0.6-1.4,0.9c-0.5,0.3-0.9,0.5-1.4,0.8
		c-0.5,0.3-1,0.5-1.5,0.7c-0.5,0.2-1,0.4-1.5,0.6c-0.4,0.2-0.7,0.3-1.1,0.4c-0.4,0.1-0.7,0.3-1.1,0.4c-0.4,0.1-0.7,0.2-1.1,0.4
		c-0.4,0.1-0.8,0.2-1.1,0.3l-0.7,0.2l-0.3,0.1v-0.3v-0.7v-2.2v-2.2V38V6.9c-0.5-0.2-1.1-0.3-1.6-0.4c-0.6-0.1-1.2-0.3-1.8-0.3
		c-0.7-0.1-1.4-0.2-2-0.2c-0.7-0.1-1.4-0.1-2.1-0.1c-0.3,0-0.5,0-0.7,0c-0.2,0-0.4,0-0.7,0c-0.1,0-0.2,0-0.4,0V0H33
		c0.2,0,0.5,0,0.7,0c0.3,0,0.5,0,0.7,0c1.1,0,2.2,0.1,3.3,0.2c1.1,0.1,2.2,0.3,3.3,0.5c1.1,0.2,2.2,0.5,3.2,0.8
		c1.1,0.3,2.1,0.7,3.1,1.1l0.3,0.1l0.2,0.1v0.2v0.4V5.3z M15.7,5.5c0.5-0.3,0.9-0.6,1.4-0.9c0.5-0.3,1-0.5,1.4-0.8
		c0.5-0.3,1-0.5,1.5-0.7c0.5-0.2,1-0.5,1.5-0.7c0.4-0.2,0.7-0.3,1.1-0.4c0.3-0.1,0.6-0.2,0.9-0.3v0l0.2-0.1c0.4-0.1,0.7-0.2,1.1-0.3
		c0.4-0.1,0.8-0.2,1.1-0.3l0.7-0.2l0.3-0.1v0.3v0.7l0,0V4v2.2v28.4v27.2c0.5,0.2,1.1,0.3,1.6,0.4c0.6,0.1,1.2,0.2,1.8,0.3
		c0.7,0.1,1.4,0.2,2,0.2c0.7,0.1,1.4,0.1,2.1,0.1c0.3,0,0.5,0,0.7,0c0.2,0,0.4,0,0.6,0c0.1,0,0.3,0,0.4,0v5.9l-0.3,0
		c-0.2,0-0.5,0-0.7,0c-0.3,0-0.5,0-0.7,0c-1.1,0-2.2-0.1-3.3-0.2c-1.1-0.1-2.2-0.3-3.3-0.5c-1.1-0.2-2.2-0.5-3.2-0.8
		c-1.1-0.3-2.1-0.7-3.1-1.1L21.1,66L20.9,66v-0.2v-0.4V64v-3.3V38.4v-5.6v-2.7V9.2l0,0c-0.1,0.1-0.3,0.1-0.4,0.2
		c-0.3,0.1-0.5,0.3-0.7,0.4c-0.2,0.1-0.4,0.2-0.5,0.3l-0.2,0.1L19,10.3l-0.1,0.1c-0.2,0.1-0.4,0.3-0.6,0.4l0,0
		c-0.2,0.2-0.4,0.3-0.6,0.4c-0.2,0.1-0.3,0.2-0.5,0.4c-0.2,0.1-0.3,0.2-0.5,0.4l0,0l-0.2,0.2l0,0c-0.2,0.2-0.4,0.4-0.6,0.5
		c-0.2,0.2-0.4,0.4-0.6,0.5c-0.2,0.2-0.4,0.3-0.6,0.5c-0.2,0.2-0.4,0.4-0.6,0.6c-1.2,1.2-2.3,2.5-3.3,3.9c-1,1.4-1.8,2.8-2.5,4.4
		c-0.7,1.4-1.2,2.9-1.6,4.5c-0.4,1.4-0.7,2.9-0.8,4.4h9.1v1.4v4.5H6c0.2,1.5,0.4,3,0.8,4.4c0.4,1.6,1,3.1,1.6,4.5
		c0.7,1.5,1.5,3,2.5,4.4c1,1.4,2.1,2.7,3.3,3.9l0,0c0.2,0.2,0.4,0.4,0.6,0.6c0.1,0.1,0.2,0.2,0.3,0.3v7.4c-0.3-0.2-0.6-0.4-0.9-0.6
		c-0.5-0.4-1-0.7-1.4-1.1v0c-0.5-0.4-0.9-0.8-1.4-1.2c-0.5-0.4-0.9-0.8-1.3-1.2c-1.6-1.6-3-3.3-4.3-5.2c-1.2-1.9-2.3-3.8-3.2-5.9
		c-0.9-2.1-1.5-4.2-2-6.4C0.2,38.9,0,36.6,0,34.3c0-2.3,0.2-4.5,0.7-6.7c0.4-2.2,1.1-4.4,2-6.4c0.9-2.1,1.9-4.1,3.2-5.9
		c1.3-1.9,2.7-3.6,4.3-5.2c0.4-0.4,0.9-0.8,1.3-1.2c0.5-0.4,0.9-0.8,1.4-1.2c0.4-0.4,0.9-0.7,1.3-1c0.4-0.3,0.8-0.6,1.3-0.9v0
		l0.1-0.1L15.7,5.5z"/>
	<path class="st0" d="M257.4,15.3c-1.3,3.6-3.9,10.3-7.7,20v22.9h-1.5c-2.4,0-3.8-0.2-4.2-0.5c-0.4-0.3-0.6-1.5-0.6-3.5V35.3
		L234,10.5h2.6c3.8,0,3.9,0.2,5.2,3.7l4.4,13.3h1l5.6-17C258.2,10.5,259.4,9.8,257.4,15.3L257.4,15.3z"/>
	<path class="st0" d="M113.3,52.3c5.4,0,4.8,3.5,4.8,5.9h-5.7H97.4V10.5h15.4l0,0h5.4c0,2.3,0.6,5.6-4.6,5.6h-0.8l0,0h-9.5l0.6,1.7
		v12l-0.6,1.7h13.4v5.9h-13.4l0.5,1.5v11.8l-0.6,1.7h9.2H113.3z"/>
	<path class="st0" d="M209.7,52.3c5.4,0,4.9,3.5,4.9,5.9h-19.3V10.5c3.6,0,6.5-0.5,6.5,4v36.1l-0.6,1.7H209.7z"/>
	<path class="st0" d="M161.5,52.3c5.4,0,4.8,3.5,4.8,5.9h-19.3V10.5c3.6,0,6.5-0.5,6.5,4v36.1l-0.6,1.7H161.5z"/>
</g>
</svg>
